<svg xmlns="http://www.w3.org/2000/svg" xmlns:xlink="http://www.w3.org/1999/xlink" width="215" height="292" viewBox="0 0 215 292"><defs><clipPath id="a"><rect width="215" height="292" fill="none"/></clipPath></defs><g clip-path="url(#a)"><g transform="translate(-314 -604)"><rect width="2" height="2" transform="translate(314 604)" fill="#fff"/></g><g transform="translate(-296 -604)"><rect width="2" height="2" transform="translate(314 604)" fill="#fff"/></g><g transform="translate(-278 -604)"><rect width="2" height="2" transform="translate(314 604)" fill="#fff"/></g><g transform="translate(-260 -604)"><rect width="2" height="2" transform="translate(314 604)" fill="#fff"/></g><g transform="translate(-242 -604)"><rect width="2" height="2" transform="translate(314 604)" fill="#fff"/></g><g transform="translate(-224 -604)"><rect width="2" height="2" transform="translate(314 604)" fill="#fff"/></g><g transform="translate(-206 -604)"><rect width="2" height="2" transform="translate(314 604)" fill="#fff"/></g><g transform="translate(-188 -604)"><rect width="2" height="2" transform="translate(314 604)" fill="#fff"/></g><g transform="translate(-170 -604)"><rect width="2" height="2" transform="translate(314 604)" fill="#fff"/></g><g transform="translate(-152 -604)"><rect width="2" height="2" transform="translate(314 604)" fill="#fff"/></g><g transform="translate(-134 -604)"><rect width="2" height="2" transform="translate(314 604)" fill="#fff"/></g><g transform="translate(-116 -604)"><rect width="2" height="2" transform="translate(314 604)" fill="#fff"/></g><g transform="translate(-314 -586)"><rect width="2" height="2" transform="translate(314 604)" fill="#fff"/></g><g transform="translate(-296 -586)"><rect width="2" height="2" transform="translate(314 604)" fill="#fff"/></g><g transform="translate(-278 -586)"><rect width="2" height="2" transform="translate(314 604)" fill="#fff"/></g><g transform="translate(-260 -586)"><rect width="2" height="2" transform="translate(314 604)" fill="#fff"/></g><g transform="translate(-242 -586)"><rect width="2" height="2" transform="translate(314 604)" fill="#fff"/></g><g transform="translate(-224 -586)"><rect width="2" height="2" transform="translate(314 604)" fill="#fff"/></g><g transform="translate(-206 -586)"><rect width="2" height="2" transform="translate(314 604)" fill="#fff"/></g><g transform="translate(-188 -586)"><rect width="2" height="2" transform="translate(314 604)" fill="#fff"/></g><g transform="translate(-170 -586)"><rect width="2" height="2" transform="translate(314 604)" fill="#fff"/></g><g transform="translate(-152 -586)"><rect width="2" height="2" transform="translate(314 604)" fill="#fff"/></g><g transform="translate(-134 -586)"><rect width="2" height="2" transform="translate(314 604)" fill="#fff"/></g><g transform="translate(-116 -586)"><rect width="2" height="2" transform="translate(314 604)" fill="#fff"/></g><g transform="translate(-314 -568)"><rect width="2" height="2" transform="translate(314 604)" fill="#fff"/></g><g transform="translate(-296 -568)"><rect width="2" height="2" transform="translate(314 604)" fill="#fff"/></g><g transform="translate(-278 -568)"><rect width="2" height="2" transform="translate(314 604)" fill="#fff"/></g><g transform="translate(-260 -568)"><rect width="2" height="2" transform="translate(314 604)" fill="#fff"/></g><g transform="translate(-242 -568)"><rect width="2" height="2" transform="translate(314 604)" fill="#fff"/></g><g transform="translate(-224 -568)"><rect width="2" height="2" transform="translate(314 604)" fill="#fff"/></g><g transform="translate(-206 -568)"><rect width="2" height="2" transform="translate(314 604)" fill="#fff"/></g><g transform="translate(-188 -568)"><rect width="2" height="2" transform="translate(314 604)" fill="#fff"/></g><g transform="translate(-170 -568)"><rect width="2" height="2" transform="translate(314 604)" fill="#fff"/></g><g transform="translate(-152 -568)"><rect width="2" height="2" transform="translate(314 604)" fill="#fff"/></g><g transform="translate(-134 -568)"><rect width="2" height="2" transform="translate(314 604)" fill="#fff"/></g><g transform="translate(-116 -568)"><rect width="2" height="2" transform="translate(314 604)" fill="#fff"/></g><g transform="translate(-314 -550)"><rect width="2" height="2" transform="translate(314 604)" fill="#fff"/></g><g transform="translate(-296 -550)"><rect width="2" height="2" transform="translate(314 604)" fill="#fff"/></g><g transform="translate(-278 -550)"><rect width="2" height="2" transform="translate(314 604)" fill="#fff"/></g><g transform="translate(-260 -550)"><rect width="2" height="2" transform="translate(314 604)" fill="#fff"/></g><g transform="translate(-242 -550)"><rect width="2" height="2" transform="translate(314 604)" fill="#fff"/></g><g transform="translate(-224 -550)"><rect width="2" height="2" transform="translate(314 604)" fill="#fff"/></g><g transform="translate(-206 -550)"><rect width="2" height="2" transform="translate(314 604)" fill="#fff"/></g><g transform="translate(-188 -550)"><rect width="2" height="2" transform="translate(314 604)" fill="#fff"/></g><g transform="translate(-170 -550)"><rect width="2" height="2" transform="translate(314 604)" fill="#fff"/></g><g transform="translate(-152 -550)"><rect width="2" height="2" transform="translate(314 604)" fill="#fff"/></g><g transform="translate(-134 -550)"><rect width="2" height="2" transform="translate(314 604)" fill="#fff"/></g><g transform="translate(-116 -550)"><rect width="2" height="2" transform="translate(314 604)" fill="#fff"/></g><g transform="translate(-314 -532)"><rect width="2" height="2" transform="translate(314 604)" fill="#fff"/></g><g transform="translate(-296 -532)"><rect width="2" height="2" transform="translate(314 604)" fill="#fff"/></g><g transform="translate(-278 -532)"><rect width="2" height="2" transform="translate(314 604)" fill="#fff"/></g><g transform="translate(-260 -532)"><rect width="2" height="2" transform="translate(314 604)" fill="#fff"/></g><g transform="translate(-242 -532)"><rect width="2" height="2" transform="translate(314 604)" fill="#fff"/></g><g transform="translate(-224 -532)"><rect width="2" height="2" transform="translate(314 604)" fill="#fff"/></g><g transform="translate(-206 -532)"><rect width="2" height="2" transform="translate(314 604)" fill="#fff"/></g><g transform="translate(-188 -532)"><rect width="2" height="2" transform="translate(314 604)" fill="#fff"/></g><g transform="translate(-170 -532)"><rect width="2" height="2" transform="translate(314 604)" fill="#fff"/></g><g transform="translate(-152 -532)"><rect width="2" height="2" transform="translate(314 604)" fill="#fff"/></g><g transform="translate(-134 -532)"><rect width="2" height="2" transform="translate(314 604)" fill="#fff"/></g><g transform="translate(-116 -532)"><rect width="2" height="2" transform="translate(314 604)" fill="#fff"/></g><g transform="translate(-314 -514)"><rect width="2" height="2" transform="translate(314 604)" fill="#fff"/></g><g transform="translate(-296 -514)"><rect width="2" height="2" transform="translate(314 604)" fill="#fff"/></g><g transform="translate(-278 -514)"><rect width="2" height="2" transform="translate(314 604)" fill="#fff"/></g><g transform="translate(-260 -514)"><rect width="2" height="2" transform="translate(314 604)" fill="#fff"/></g><g transform="translate(-242 -514)"><rect width="2" height="2" transform="translate(314 604)" fill="#fff"/></g><g transform="translate(-224 -514)"><rect width="2" height="2" transform="translate(314 604)" fill="#fff"/></g><g transform="translate(-206 -514)"><rect width="2" height="2" transform="translate(314 604)" fill="#fff"/></g><g transform="translate(-188 -514)"><rect width="2" height="2" transform="translate(314 604)" fill="#fff"/></g><g transform="translate(-170 -514)"><rect width="2" height="2" transform="translate(314 604)" fill="#fff"/></g><g transform="translate(-152 -514)"><rect width="2" height="2" transform="translate(314 604)" fill="#fff"/></g><g transform="translate(-134 -514)"><rect width="2" height="2" transform="translate(314 604)" fill="#fff"/></g><g transform="translate(-116 -514)"><rect width="2" height="2" transform="translate(314 604)" fill="#fff"/></g><g transform="translate(-314 -496)"><rect width="2" height="2" transform="translate(314 604)" fill="#fff"/></g><g transform="translate(-296 -496)"><rect width="2" height="2" transform="translate(314 604)" fill="#fff"/></g><g transform="translate(-278 -496)"><rect width="2" height="2" transform="translate(314 604)" fill="#fff"/></g><g transform="translate(-260 -496)"><rect width="2" height="2" transform="translate(314 604)" fill="#fff"/></g><g transform="translate(-242 -496)"><rect width="2" height="2" transform="translate(314 604)" fill="#fff"/></g><g transform="translate(-224 -496)"><rect width="2" height="2" transform="translate(314 604)" fill="#fff"/></g><g transform="translate(-206 -496)"><rect width="2" height="2" transform="translate(314 604)" fill="#fff"/></g><g transform="translate(-188 -496)"><rect width="2" height="2" transform="translate(314 604)" fill="#fff"/></g><g transform="translate(-170 -496)"><rect width="2" height="2" transform="translate(314 604)" fill="#fff"/></g><g transform="translate(-152 -496)"><rect width="2" height="2" transform="translate(314 604)" fill="#fff"/></g><g transform="translate(-134 -496)"><rect width="2" height="2" transform="translate(314 604)" fill="#fff"/></g><g transform="translate(-116 -496)"><rect width="2" height="2" transform="translate(314 604)" fill="#fff"/></g><g transform="translate(-314 -478)"><rect width="2" height="2" transform="translate(314 604)" fill="#fff"/></g><g transform="translate(-296 -478)"><rect width="2" height="2" transform="translate(314 604)" fill="#fff"/></g><g transform="translate(-278 -478)"><rect width="2" height="2" transform="translate(314 604)" fill="#fff"/></g><g transform="translate(-260 -478)"><rect width="2" height="2" transform="translate(314 604)" fill="#fff"/></g><g transform="translate(-242 -478)"><rect width="2" height="2" transform="translate(314 604)" fill="#fff"/></g><g transform="translate(-224 -478)"><rect width="2" height="2" transform="translate(314 604)" fill="#fff"/></g><g transform="translate(-206 -478)"><rect width="2" height="2" transform="translate(314 604)" fill="#fff"/></g><g transform="translate(-188 -478)"><rect width="2" height="2" transform="translate(314 604)" fill="#fff"/></g><g transform="translate(-170 -478)"><rect width="2" height="2" transform="translate(314 604)" fill="#fff"/></g><g transform="translate(-152 -478)"><rect width="2" height="2" transform="translate(314 604)" fill="#fff"/></g><g transform="translate(-134 -478)"><rect width="2" height="2" transform="translate(314 604)" fill="#fff"/></g><g transform="translate(-116 -478)"><rect width="2" height="2" transform="translate(314 604)" fill="#fff"/></g><g transform="translate(-314 -460)"><rect width="2" height="2" transform="translate(314 604)" fill="#fff"/></g><g transform="translate(-296 -460)"><rect width="2" height="2" transform="translate(314 604)" fill="#fff"/></g><g transform="translate(-278 -460)"><rect width="2" height="2" transform="translate(314 604)" fill="#fff"/></g><g transform="translate(-260 -460)"><rect width="2" height="2" transform="translate(314 604)" fill="#fff"/></g><g transform="translate(-242 -460)"><rect width="2" height="2" transform="translate(314 604)" fill="#fff"/></g><g transform="translate(-224 -460)"><rect width="2" height="2" transform="translate(314 604)" fill="#fff"/></g><g transform="translate(-206 -460)"><rect width="2" height="2" transform="translate(314 604)" fill="#fff"/></g><g transform="translate(-188 -460)"><rect width="2" height="2" transform="translate(314 604)" fill="#fff"/></g><g transform="translate(-170 -460)"><rect width="2" height="2" transform="translate(314 604)" fill="#fff"/></g><g transform="translate(-152 -460)"><rect width="2" height="2" transform="translate(314 604)" fill="#fff"/></g><g transform="translate(-134 -460)"><rect width="2" height="2" transform="translate(314 604)" fill="#fff"/></g><g transform="translate(-116 -460)"><rect width="2" height="2" transform="translate(314 604)" fill="#fff"/></g><g transform="translate(-314 -442)"><rect width="2" height="2" transform="translate(314 604)" fill="#fff"/></g><g transform="translate(-296 -442)"><rect width="2" height="2" transform="translate(314 604)" fill="#fff"/></g><g transform="translate(-278 -442)"><rect width="2" height="2" transform="translate(314 604)" fill="#fff"/></g><g transform="translate(-260 -442)"><rect width="2" height="2" transform="translate(314 604)" fill="#fff"/></g><g transform="translate(-242 -442)"><rect width="2" height="2" transform="translate(314 604)" fill="#fff"/></g><g transform="translate(-224 -442)"><rect width="2" height="2" transform="translate(314 604)" fill="#fff"/></g><g transform="translate(-206 -442)"><rect width="2" height="2" transform="translate(314 604)" fill="#fff"/></g><g transform="translate(-188 -442)"><rect width="2" height="2" transform="translate(314 604)" fill="#fff"/></g><g transform="translate(-170 -442)"><rect width="2" height="2" transform="translate(314 604)" fill="#fff"/></g><g transform="translate(-152 -442)"><rect width="2" height="2" transform="translate(314 604)" fill="#fff"/></g><g transform="translate(-134 -442)"><rect width="2" height="2" transform="translate(314 604)" fill="#fff"/></g><g transform="translate(-116 -442)"><rect width="2" height="2" transform="translate(314 604)" fill="#fff"/></g><g transform="translate(-314 -424)"><rect width="2" height="2" transform="translate(314 604)" fill="#fff"/></g><g transform="translate(-296 -424)"><rect width="2" height="2" transform="translate(314 604)" fill="#fff"/></g><g transform="translate(-278 -424)"><rect width="2" height="2" transform="translate(314 604)" fill="#fff"/></g><g transform="translate(-260 -424)"><rect width="2" height="2" transform="translate(314 604)" fill="#fff"/></g><g transform="translate(-242 -424)"><rect width="2" height="2" transform="translate(314 604)" fill="#fff"/></g><g transform="translate(-224 -424)"><rect width="2" height="2" transform="translate(314 604)" fill="#fff"/></g><g transform="translate(-206 -424)"><rect width="2" height="2" transform="translate(314 604)" fill="#fff"/></g><g transform="translate(-188 -424)"><rect width="2" height="2" transform="translate(314 604)" fill="#fff"/></g><g transform="translate(-170 -424)"><rect width="2" height="2" transform="translate(314 604)" fill="#fff"/></g><g transform="translate(-152 -424)"><rect width="2" height="2" transform="translate(314 604)" fill="#fff"/></g><g transform="translate(-134 -424)"><rect width="2" height="2" transform="translate(314 604)" fill="#fff"/></g><g transform="translate(-116 -424)"><rect width="2" height="2" transform="translate(314 604)" fill="#fff"/></g><g transform="translate(-314 -406)"><rect width="2" height="2" transform="translate(314 604)" fill="#fff"/></g><g transform="translate(-296 -406)"><rect width="2" height="2" transform="translate(314 604)" fill="#fff"/></g><g transform="translate(-278 -406)"><rect width="2" height="2" transform="translate(314 604)" fill="#fff"/></g><g transform="translate(-260 -406)"><rect width="2" height="2" transform="translate(314 604)" fill="#fff"/></g><g transform="translate(-242 -406)"><rect width="2" height="2" transform="translate(314 604)" fill="#fff"/></g><g transform="translate(-224 -406)"><rect width="2" height="2" transform="translate(314 604)" fill="#fff"/></g><g transform="translate(-206 -406)"><rect width="2" height="2" transform="translate(314 604)" fill="#fff"/></g><g transform="translate(-188 -406)"><rect width="2" height="2" transform="translate(314 604)" fill="#fff"/></g><g transform="translate(-170 -406)"><rect width="2" height="2" transform="translate(314 604)" fill="#fff"/></g><g transform="translate(-152 -406)"><rect width="2" height="2" transform="translate(314 604)" fill="#fff"/></g><g transform="translate(-134 -406)"><rect width="2" height="2" transform="translate(314 604)" fill="#fff"/></g><g transform="translate(-116 -406)"><rect width="2" height="2" transform="translate(314 604)" fill="#fff"/></g><g transform="translate(-314 -388)"><rect width="2" height="2" transform="translate(314 604)" fill="#fff"/></g><g transform="translate(-296 -388)"><rect width="2" height="2" transform="translate(314 604)" fill="#fff"/></g><g transform="translate(-278 -388)"><rect width="2" height="2" transform="translate(314 604)" fill="#fff"/></g><g transform="translate(-260 -388)"><rect width="2" height="2" transform="translate(314 604)" fill="#fff"/></g><g transform="translate(-242 -388)"><rect width="2" height="2" transform="translate(314 604)" fill="#fff"/></g><g transform="translate(-224 -388)"><rect width="2" height="2" transform="translate(314 604)" fill="#fff"/></g><g transform="translate(-206 -388)"><rect width="2" height="2" transform="translate(314 604)" fill="#fff"/></g><g transform="translate(-188 -388)"><rect width="2" height="2" transform="translate(314 604)" fill="#fff"/></g><g transform="translate(-170 -388)"><rect width="2" height="2" transform="translate(314 604)" fill="#fff"/></g><g transform="translate(-152 -388)"><rect width="2" height="2" transform="translate(314 604)" fill="#fff"/></g><g transform="translate(-134 -388)"><rect width="2" height="2" transform="translate(314 604)" fill="#fff"/></g><g transform="translate(-116 -388)"><rect width="2" height="2" transform="translate(314 604)" fill="#fff"/></g><g transform="translate(-314 -370)"><rect width="2" height="2" transform="translate(314 604)" fill="#fff"/></g><g transform="translate(-296 -370)"><rect width="2" height="2" transform="translate(314 604)" fill="#fff"/></g><g transform="translate(-278 -370)"><rect width="2" height="2" transform="translate(314 604)" fill="#fff"/></g><g transform="translate(-260 -370)"><rect width="2" height="2" transform="translate(314 604)" fill="#fff"/></g><g transform="translate(-242 -370)"><rect width="2" height="2" transform="translate(314 604)" fill="#fff"/></g><g transform="translate(-224 -370)"><rect width="2" height="2" transform="translate(314 604)" fill="#fff"/></g><g transform="translate(-206 -370)"><rect width="2" height="2" transform="translate(314 604)" fill="#fff"/></g><g transform="translate(-188 -370)"><rect width="2" height="2" transform="translate(314 604)" fill="#fff"/></g><g transform="translate(-170 -370)"><rect width="2" height="2" transform="translate(314 604)" fill="#fff"/></g><g transform="translate(-152 -370)"><rect width="2" height="2" transform="translate(314 604)" fill="#fff"/></g><g transform="translate(-134 -370)"><rect width="2" height="2" transform="translate(314 604)" fill="#fff"/></g><g transform="translate(-116 -370)"><rect width="2" height="2" transform="translate(314 604)" fill="#fff"/></g><g transform="translate(-314 -352)"><rect width="2" height="2" transform="translate(314 604)" fill="#fff"/></g><g transform="translate(-296 -352)"><rect width="2" height="2" transform="translate(314 604)" fill="#fff"/></g><g transform="translate(-278 -352)"><rect width="2" height="2" transform="translate(314 604)" fill="#fff"/></g><g transform="translate(-260 -352)"><rect width="2" height="2" transform="translate(314 604)" fill="#fff"/></g><g transform="translate(-242 -352)"><rect width="2" height="2" transform="translate(314 604)" fill="#fff"/></g><g transform="translate(-224 -352)"><rect width="2" height="2" transform="translate(314 604)" fill="#fff"/></g><g transform="translate(-206 -352)"><rect width="2" height="2" transform="translate(314 604)" fill="#fff"/></g><g transform="translate(-188 -352)"><rect width="2" height="2" transform="translate(314 604)" fill="#fff"/></g><g transform="translate(-170 -352)"><rect width="2" height="2" transform="translate(314 604)" fill="#fff"/></g><g transform="translate(-152 -352)"><rect width="2" height="2" transform="translate(314 604)" fill="#fff"/></g><g transform="translate(-134 -352)"><rect width="2" height="2" transform="translate(314 604)" fill="#fff"/></g><g transform="translate(-116 -352)"><rect width="2" height="2" transform="translate(314 604)" fill="#fff"/></g><g transform="translate(-314 -334)"><rect width="2" height="2" transform="translate(314 604)" fill="#fff"/></g><g transform="translate(-296 -334)"><rect width="2" height="2" transform="translate(314 604)" fill="#fff"/></g><g transform="translate(-278 -334)"><rect width="2" height="2" transform="translate(314 604)" fill="#fff"/></g><g transform="translate(-260 -334)"><rect width="2" height="2" transform="translate(314 604)" fill="#fff"/></g><g transform="translate(-242 -334)"><rect width="2" height="2" transform="translate(314 604)" fill="#fff"/></g><g transform="translate(-224 -334)"><rect width="2" height="2" transform="translate(314 604)" fill="#fff"/></g><g transform="translate(-206 -334)"><rect width="2" height="2" transform="translate(314 604)" fill="#fff"/></g><g transform="translate(-188 -334)"><rect width="2" height="2" transform="translate(314 604)" fill="#fff"/></g><g transform="translate(-170 -334)"><rect width="2" height="2" transform="translate(314 604)" fill="#fff"/></g><g transform="translate(-152 -334)"><rect width="2" height="2" transform="translate(314 604)" fill="#fff"/></g><g transform="translate(-134 -334)"><rect width="2" height="2" transform="translate(314 604)" fill="#fff"/></g><g transform="translate(-116 -334)"><rect width="2" height="2" transform="translate(314 604)" fill="#fff"/></g><g transform="translate(-314 -316)"><rect width="2" height="2" transform="translate(314 604)" fill="#fff"/></g><g transform="translate(-296 -316)"><rect width="2" height="2" transform="translate(314 604)" fill="#fff"/></g><g transform="translate(-278 -316)"><rect width="2" height="2" transform="translate(314 604)" fill="#fff"/></g><g transform="translate(-260 -316)"><rect width="2" height="2" transform="translate(314 604)" fill="#fff"/></g><g transform="translate(-242 -316)"><rect width="2" height="2" transform="translate(314 604)" fill="#fff"/></g><g transform="translate(-224 -316)"><rect width="2" height="2" transform="translate(314 604)" fill="#fff"/></g><g transform="translate(-206 -316)"><rect width="2" height="2" transform="translate(314 604)" fill="#fff"/></g><g transform="translate(-188 -316)"><rect width="2" height="2" transform="translate(314 604)" fill="#fff"/></g><g transform="translate(-170 -316)"><rect width="2" height="2" transform="translate(314 604)" fill="#fff"/></g><g transform="translate(-152 -316)"><rect width="2" height="2" transform="translate(314 604)" fill="#fff"/></g><g transform="translate(-134 -316)"><rect width="2" height="2" transform="translate(314 604)" fill="#fff"/></g><g transform="translate(-116 -316)"><rect width="2" height="2" transform="translate(314 604)" fill="#fff"/></g></g></svg>